<svg width="390" height="91" viewBox="0 0 390 91" fill="none" xmlns="http://www.w3.org/2000/svg">
<path fill-rule="evenodd" clip-rule="evenodd" d="M390 11.0817V91H0V20.1035C1.42386 20.5173 2.83865 21.1015 4.22351 21.8694L16.3081 28.5709C22.8715 32.2106 30.92 31.8695 37.1519 27.6876L55.0522 15.6755C61.1767 11.5657 69.0661 11.1602 75.5797 14.6205L104.139 29.7924C109.715 32.7548 116.363 32.9099 122.071 30.2105L161.704 11.4695C170.751 7.19122 181.568 10.2591 187.023 18.6502L200.028 38.6584C205.673 47.343 217.015 50.2806 226.166 45.4284L305.709 3.25181C312.848 -0.533374 321.563 0.348849 327.799 5.48787L349.95 23.7448C357.484 29.9539 368.4 29.8166 375.775 23.4198L390 11.0817Z" fill="#1EFCAB"/>
</svg>
