<svg width="45" height="45" viewBox="0 0 45 45" fill="none" xmlns="http://www.w3.org/2000/svg">
<path d="M7.5 37.5C6.46875 37.5 5.58594 37.1328 4.85156 36.3984C4.11719 35.6641 3.75 34.7813 3.75 33.75V11.25C3.75 10.2187 4.11719 9.33594 4.85156 8.60156C5.58594 7.86719 6.46875 7.5 7.5 7.5H18.75L22.5 11.25H37.5C38.5313 11.25 39.4141 11.6172 40.1484 12.3516C40.8828 13.0859 41.25 13.9687 41.25 15V33.75C41.25 34.7813 40.8828 35.6641 40.1484 36.3984C39.4141 37.1328 38.5313 37.5 37.5 37.5H7.5ZM7.5 33.75H37.5V15H20.9531L17.2031 11.25H7.5V33.75Z" fill="#4ACCFF"/>
</svg>
