<svg width="390" height="844" viewBox="0 0 390 844" fill="none" xmlns="http://www.w3.org/2000/svg">
<g clip-path="url(#clip0_2_405)">
<rect width="390" height="844" fill="black"/>
<rect width="390" height="844" fill="black"/>
<path fill-rule="evenodd" clip-rule="evenodd" d="M390 116.842L374.133 103.08C366.758 96.6835 355.842 96.5461 348.309 102.755L326.157 121.012C319.922 126.151 311.207 127.033 304.068 123.248L224.524 81.0717C215.373 76.2194 204.031 79.157 198.386 87.8417L185.381 107.85C179.927 116.241 169.11 119.309 160.062 115.031L120.43 96.2895C114.721 93.5902 108.073 93.7452 102.497 96.7077L73.9381 111.88C67.4245 115.34 59.5351 114.934 53.4106 110.825L35.5103 98.8125C29.2784 94.6305 21.2299 94.2895 14.6665 97.9291L2.58191 104.631C1.73096 105.102 0.868711 105.505 0 105.841V0H390V116.842Z" fill="#1EFCAB"/>
<path fill-rule="evenodd" clip-rule="evenodd" d="M390 764.082V844H0V773.103C1.42386 773.517 2.83865 774.101 4.22351 774.869L16.3081 781.571C22.8715 785.211 30.92 784.869 37.1519 780.688L55.0522 768.676C61.1767 764.566 69.0661 764.16 75.5797 767.621L104.139 782.792C109.715 785.755 116.363 785.91 122.071 783.211L161.704 764.469C170.751 760.191 181.568 763.259 187.023 771.65L200.028 791.658C205.673 800.343 217.015 803.281 226.166 798.428L305.709 756.252C312.848 752.467 321.563 753.349 327.799 758.488L349.95 776.745C357.484 782.954 368.4 782.817 375.775 776.42L390 764.082Z" fill="#1EFCAB"/>
</g>
<defs>
<clipPath id="clip0_2_405">
<rect width="390" height="844" fill="white"/>
</clipPath>
</defs>
</svg>
