<svg width="390" height="126" viewBox="0 0 390 126" fill="none" xmlns="http://www.w3.org/2000/svg">
<path fill-rule="evenodd" clip-rule="evenodd" d="M390 116.842L374.133 103.08C366.758 96.6835 355.842 96.5461 348.309 102.755L326.157 121.012C319.922 126.151 311.207 127.033 304.068 123.248L224.524 81.0717C215.373 76.2194 204.031 79.157 198.386 87.8417L185.381 107.85C179.927 116.241 169.11 119.309 160.062 115.031L120.43 96.2895C114.721 93.5902 108.073 93.7452 102.497 96.7077L73.9381 111.88C67.4245 115.34 59.5351 114.934 53.4106 110.825L35.5103 98.8125C29.2784 94.6305 21.2299 94.2895 14.6665 97.9291L2.58191 104.631C1.73096 105.102 0.868711 105.505 0 105.841V0H390V116.842Z" fill="#1EFCAB"/>
</svg>
